<svg width="18" height="18" viewBox="0 0 18 18" fill="none" xmlns="http://www.w3.org/2000/svg">
<path d="M9.00008 17.3334C7.86119 17.3334 6.7848 17.1145 5.77091 16.6767C4.75703 16.2395 3.87175 15.6423 3.11508 14.8851C2.35786 14.1284 1.76064 13.2431 1.32341 12.2292C0.885637 11.2154 0.666748 10.139 0.666748 9.00008C0.666748 7.8473 0.885637 6.76758 1.32341 5.76091C1.76064 4.75369 2.35786 3.87175 3.11508 3.11508C3.87175 2.35786 4.75703 1.76036 5.77091 1.32258C6.7848 0.885359 7.86119 0.666748 9.00008 0.666748C10.1529 0.666748 11.2326 0.885359 12.2392 1.32258C13.2465 1.76036 14.1284 2.35786 14.8851 3.11508C15.6423 3.87175 16.2395 4.75369 16.6767 5.76091C17.1145 6.76758 17.3334 7.8473 17.3334 9.00008V10.2084C17.3334 11.0279 17.0523 11.7256 16.4901 12.3017C15.9273 12.8784 15.2362 13.1667 14.4167 13.1667C13.9167 13.1667 13.4515 13.0556 13.0209 12.8334C12.5904 12.6112 12.2362 12.3195 11.9584 11.9584C11.5834 12.3334 11.1426 12.6287 10.6359 12.8442C10.1287 13.0592 9.58341 13.1667 9.00008 13.1667C7.8473 13.1667 6.8648 12.7604 6.05258 11.9476C5.2398 11.1354 4.83341 10.1529 4.83341 9.00008C4.83341 7.8473 5.2398 6.86452 6.05258 6.05175C6.8648 5.23952 7.8473 4.83341 9.00008 4.83341C10.1529 4.83341 11.1356 5.23952 11.9484 6.05175C12.7606 6.86452 13.1667 7.8473 13.1667 9.00008V10.2084C13.1667 10.6112 13.2917 10.927 13.5417 11.1559C13.7917 11.3854 14.0834 11.5001 14.4167 11.5001C14.7501 11.5001 15.0417 11.3854 15.2917 11.1559C15.5417 10.927 15.6667 10.6112 15.6667 10.2084V9.00008C15.6667 7.18064 15.0104 5.61452 13.6976 4.30175C12.3854 2.98953 10.8195 2.33341 9.00008 2.33341C7.18064 2.33341 5.61452 2.98953 4.30175 4.30175C2.98953 5.61452 2.33341 7.18064 2.33341 9.00008C2.33341 10.8195 2.98953 12.3854 4.30175 13.6976C5.61452 15.0104 7.18064 15.6667 9.00008 15.6667H13.1667V17.3334H9.00008ZM9.00008 11.5001C9.69452 11.5001 10.2848 11.257 10.7709 10.7709C11.257 10.2848 11.5001 9.69452 11.5001 9.00008C11.5001 8.30564 11.257 7.71536 10.7709 7.22925C10.2848 6.74314 9.69452 6.50008 9.00008 6.50008C8.30564 6.50008 7.71536 6.74314 7.22925 7.22925C6.74314 7.71536 6.50008 8.30564 6.50008 9.00008C6.50008 9.69452 6.74314 10.2848 7.22925 10.7709C7.71536 11.257 8.30564 11.5001 9.00008 11.5001Z" fill="#898989"/>
</svg>
